<?xml version="1.0" encoding="UTF-8"?>
<svg xmlns="http://www.w3.org/2000/svg" xmlns:xlink="http://www.w3.org/1999/xlink" viewBox="0 0 980.72 306.18">
    <defs>
        <style>
            .cls-1,.cls-2{fill:#fff;}.cls-3{isolation:isolate;}.cls-2{mix-blend-mode:screen;}.cls-2,.cls-4{fill-rule:evenodd;}
            .cls-5,.cls-4{fill:#fff;}
            .cls-6{fill:url(#_命名的渐变_2);}.cls-7{fill:#08447f;}
        </style>
        <linearGradient id="_命名的渐变_2" x1="153.09" y1="306.18" x2="153.09" y2="0"
                        gradientTransform="matrix(1, 0, 0, 1, 0, 0)" gradientUnits="userSpaceOnUse">
            <stop offset="0" stop-color="#2975fe"/>
            <stop offset="1" stop-color="#0cd5ff"/>
        </linearGradient>
    </defs>
    <g class="cls-3">
        <g id="_层_2">
            <g id="_层_1-2">
                <g>
                    <path class="cls-7"
                          d="M888.57,56.56c-.27-.05-1,1.22-1.16,2.48-.32,2.36-.31,4.81-.51,7.18-.08,.88-.26,1.84-.46,2.62-.03,.13-.34,.04-.42-.04-.07-.07-.24-.39-.23-.61,.18-3.06,0-5.7,.36-8.9,.37-3.2,2.11-5.84,4.82-7.92,1.3-.99,2.58-1.08,4.5-1.12s5.29-.27,7.3-.43c2-.16,3.6-.37,5.43-.52,4.78-.37,9.46-.69,14.21-1.05,.66-.05,1.36-.15,1.98-.3,5.02-1.25,9.33-.18,14.19,1.14,1.51,.41,2.91,.37,4.43,.2,3.47-.38,6.53-.45,9.63,1.35,.3,.18,.77,.25,1.12,.28,6.74,.62,11.19,.89,15.03,1.87,5.13,1.3,9.68,5.95,11.28,11.12,1.83,5.91-.62,11.17-1.36,12.75-2.59,5.55-7.46,8.93-10.28,10.88-.83,.58-2.89,1.92-4.7,3.08-2,1.28-3.03,1.89-3.53,2.15-2.63,1.35-5.11,.73-8.18,.42-3.06-.31-6.14-.5-9.44-.28-4.4,.29-9.06,.88-13.6,1.5-2.18,.3-4.59,.45-6.91,.75-2.32,.3-4.87,.27-7.15,.14-.09,0-.22,.33-.14,.59,.25,.85,2.88,.77,4.86,.7,2.91-.11,5.13-.53,5.17-.32,.02,.08-.3,.21-.39,.25-2.7,1.1-5.63,1.17-5.63,1.17-3.08,.07-4.63,.1-6.92-.23-.47-.07-1.57-.23-3.99-.82-5.63-1.37-8.45-2.06-10.62-3.61-2.06-1.47-3.44-2.95-4.34-4.82-1.34-2.82-2.94-5.83-3.71-8.84-.5-1.95-.57-4.32-.46-6.05,.1-1.72-.09-3.3-.07-4.6,.02-1.3,.36-2.64,.49-3.4,.12-.77,.4-.86,.29-1.2-.18-.55-.55-3.04-.69-4.73-.16-1.91,.03-2.77-.18-2.82Z"/>
                    <path class="cls-7"
                          d="M931.74,46.39c.38-.08,1.42-.2,2.16-.19,7.47,.05,15.11,.54,22.59,1.48,1.68,.21,3.65,.98,5.1,1.53,.21,.08,0,.58-.33,.63-.33,.05-1.58,.04-2.26-.07-4.08-.61-8.36-1.32-12.45-1.98-1.09-.18-2.24-.27-3.23-.06-3.81,.82-7.21-.7-10.97-.58-.25,0-.72-.25-.74-.37-.02-.12-.26-.32,.13-.41Z"/>
                    <path class="cls-7"
                          d="M961.05,95.24c-.26,.17-1.18,.58-1.82,.62-3.09,.19-6.17,.29-9.34,.61-1.81,.18-3.86-.2-5.66-.61-1.8-.41-3.3-.84-5.18-.51-.29,.05-.96,.03-1.3,0,1.02-.86,2.2-1.27,3.49-1.28,1.29-.01,2.52,.31,3.71,.36,5,.22,9.89,1.05,14.79,.56,.47-.05,1.11-.29,1.29-.23,.18,.06,.3,.3,.04,.47Z"/>
                    <path class="cls-7"
                          d="M893.19,48.62c3.45-1.3,6.25-3.09,10.06-2.76,1.13,.1,2.44,.24,3.54,.36,.31,.03,.86,.35,.86,.51,0,.16-.54,.47-.85,.5-2.88,.29-5.88,.47-8.79,.76-.82,.08-1.65,.46-2.42,.64-.77,.18-1.52,.37-2.23,.45-.17,.02-.06-.41-.18-.47Z"/>
                    <path class="cls-7" d="M910.42,46.56c1.69,.06,3.37,.12,5.05,.18-1.52,.92-3.56,.66-5.05-.18Z"/>
                    <g>
                        <path class="cls-1"
                              d="M910.14,59.56c-.18-.15-.41-.31-.69-.46-.25-.14-.51-.25-.76-.3-.05-.01-.1-.01-.17,0-.06,0-.13,.03-.21,.06-.09,.04-.16,.07-.19,.08-.25,.11-.45,.19-.6,.22-.56,.19-1.15,.34-1.75,.47l-.24,.05,.1-.23c.33-.75,.59-1.44,.76-2.04,.03-.07,.09-.22,.19-.47,.05-.09,.09-.19,.14-.31,.03-.1,.04-.18,.04-.25,0-.17-.08-.33-.24-.49-.17-.16-.38-.3-.63-.4s-.48-.15-.69-.15c-.16,0-.2,.01-.21,.02-.04,.01-.07,.02-.07,.1,0,.06,.01,.14,.02,.23,.02,.11,.03,.21,.03,.29,0,.44-.14,1.18-.41,2.21-.26,1.03-.6,2.05-.99,3.03l-.09,.22-.13-.19c-.09-.13-.19-.24-.29-.32-.16-.14-.31-.21-.47-.21-.02,0-.07,.01-.15,.03h-.03s-.1,.04-.22,.08l-.16,.05v-.17c0-.17-.05-.28-.14-.33-.15-.1-.32-.18-.5-.23-.19-.06-.45-.09-.77-.11-.08,0-.12,0-.16,.03-.04,.04-.05,.08-.05,.12v1.2l-.09,.03c-.78,.25-.98,.29-1.07,.3l-.24,.02,.12-.2c.25-.44,.59-1.08,1-1.84l.02-.05h.05c.17-.06,.33-.1,.51-.16,.17-.05,.34-.09,.51-.14,.82-.23,1.45-.41,1.73-.48,.12-.02,.14-.07,.14-.15,0-.06-.03-.13-.08-.2-.18-.24-.36-.43-.53-.57-.11-.1-.27-.14-.47-.14-.13,0-.24,.01-.34,.05-.05,.01-.18,.05-.4,.12l-.31,.11,.17-.29c.24-.43,.4-.71,.52-.88s.21-.31,.26-.42c.05-.08,.07-.17,.07-.24,0-.09-.02-.16-.06-.23-.09-.17-.23-.34-.44-.52-.22-.19-.47-.36-.74-.5-.09-.05-.17-.08-.24-.08-.05,0-.18,0-.22,.34-.02,.23-.05,.5-.09,.79-.05,.3-.09,.52-.13,.66-.21,.64-.42,1.23-.63,1.78l-.02,.06-.06,.02c-.26,.07-.49,.14-.68,.2l-1.07,.3c-.07,.02-.1,.03-.12,.04v.03c.13,.27,.34,.5,.65,.7,.1,.05,.19,.08,.25,.1,.06,.01,.14,.02,.24,.01l.22-.02-.1,.2c-.38,.74-.73,1.32-1.08,1.75-.02,.03-.03,.07-.03,.12,0,.03,.01,.07,.02,.13,.18,.37,.41,.67,.69,.87,.06,.05,.11,.07,.18,.07,.02,0,.09,0,.25-.07,.51-.16,.84-.25,1.03-.3l.61-.19v.17c0,.8-.01,1.31-.02,1.66v.09l-.08,.02c-1.23,.43-2.2,.67-2.88,.71-.1,0-.32,.02-.32,.11,0,.03,.02,.1,.06,.19,.02,.03,.1,.2,.25,.47s.32,.48,.52,.65c.23,.16,.44,.15,.76-.07l1.67-1.16v.25c-.03,.85-.07,1.46-.12,1.87-.03,.25,.01,.48,.12,.69s.25,.38,.43,.52c.38,.27,.69,.24,.86-.07,.1-.18,.15-.45,.15-.78v-1.23c-.01-.73,0-1.46,.03-2.16v-.06l1.49-1.01-1.48,.52,.11-1.81,.09-.02c.53-.13,.89-.22,1.05-.25l.23-.04-.09,.21c-.06,.15-.21,.45-.43,.88-.03,.07-.03,.11-.03,.12,.06,0,.1,0,.15-.04,.7-.42,1.39-1.17,2.04-2.23l.06-.1,.3,.17c.07,.04,.19,.06,.34,.06,.05,0,.16-.01,.37-.03l.82-.2c.52-.14,.9-.23,1.04-.25,.12-.03,.24-.02,.33,.05,.1,.06,.15,.15,.15,.26l-.02,.09-.14,.32c-.17,.37-.31,.66-.43,.85-.02,.03-.03,.05-.04,.06,.1,0,.19-.03,.31-.11,.32-.21,.7-.44,1.18-.7,.49-.27,.84-.44,1.13-.55,.25-.1,.28-.22,.28-.31s-.07-.32-.51-.77Zm1.15,8.84c-.53-.27-1.19-.79-1.96-1.55-.32-.29-.67-.66-1.06-1.11-.35-.4-.69-.82-1.02-1.26l-.1-.12c-.25-.34-.4-.53-.44-.6l-.16-.19v-.06c.06-.26,.14-.58,.25-.93,.06-.22,.09-.38,.09-.47,0-.13-.06-.25-.17-.36-.18-.15-.36-.28-.53-.38-.15-.09-.39-.15-.72-.2h-.1c-.06,0-.09,0-.12,.03-.03,.03-.04,.12-.02,.24,.03,.17,.05,.32,.05,.45,0,.18-.04,.47-.11,.86-.13,.64-.35,1.38-.66,2.21s-.72,1.63-1.23,2.4-1.1,1.39-1.76,1.83c-.05,.04-.07,.07-.07,.12,0,.03,.01,.05,.03,.07s.03,.04,.1,.02c1.08-.38,2.01-.97,2.76-1.75s1.34-1.68,1.76-2.68l.11-.25,.18,.37c.19,.37,.41,.82,.64,1.31,.5,1.06,.86,1.72,1.06,1.97,.35,.41,.89,.61,1.6,.61,.35,0,.83-.1,1.43-.3,.1-.04,.18-.08,.22-.13,.04-.03,.06-.06,.06-.07,0-.02-.04-.06-.11-.08Z"/>
                        <path class="cls-1"
                              d="M918.06,56.49c-.05-.1-.09-.16-.13-.2-.23-.24-.58-.47-1.04-.72-.46-.24-.81-.36-1.05-.36-.05,0-.08,0-.09,.02-.01,.02-.02,.05,0,.11,.03,.17,.05,.35,.05,.54,0,.21-.02,.42-.05,.63-.21,1.38-.67,2.74-1.35,4.05-.68,1.32-1.62,2.56-2.79,3.69l-.03,.03s.02,0,.03-.01c1.28-.43,2.38-1.13,3.27-2.07l.2-.21,.02,.29c0,.17,0,.45,0,.89,0,1.61-.08,3.07-.25,4.33-.02,.17,.02,.38,.12,.63s.23,.49,.39,.7c.18,.24,.32,.33,.41,.36,.08,.03,.15,.04,.22,.04,.13,0,.51,0,.6-.98,.03-.34,.04-.84,.04-1.5s0-1.22-.01-1.59l-.02-1.61c0-.47,.01-.9,.03-1.32,.03-.61,.04-.74,.05-.79,.04-.2-.03-.27-.11-.31-.05-.03-.18-.08-.52-.14l-.19-.04,.11-.16c.26-.4,.59-.98,.97-1.73,.21-.44,.37-.74,.49-.93,.19-.29,.37-.58,.54-.89,.1-.16,.15-.31,.15-.45,0-.11-.03-.22-.07-.3Zm8.15,6.38c-.18-.4-.53-.73-1.04-.97-.17-.08-.44-.07-.71,.03-.55,.15-1.15,.28-1.79,.4l-.14,.03v-.15c0-.55-.02-1.31-.02-2.28v-.11h.1c.95-.19,1.59-.33,1.96-.44,.06-.02,.11-.05,.14-.09s.05-.08,.05-.13c0-.07-.02-.1-.03-.12-.17-.27-.43-.52-.79-.74-.17-.12-.42-.11-.67-.03h0c-.09,.03-.27,.07-.59,.16l-.19,.05,.04-.2h-.12l.12-.05c.01-.05,.01-.12,.01-.21,.03-.87,.08-1.63,.15-2.24,0-.12-.1-.23-.3-.34-.23-.12-.51-.21-.84-.27-.32-.05-.57-.07-.74-.05-.07,0-.11,.04-.11,.16l.02,.11c.06,.3,.12,.68,.16,1.12,.04,.47,.06,.87,.06,1.25v1.19l-.97,.33,.31-.53c.09-.16,.11-.25,.11-.29,0-.07-.02-.12-.08-.16l-.02-.03c-.14-.17-.32-.33-.53-.48s-.46-.27-.72-.35c-.06-.02-.1-.03-.12-.03-.03,0-.08,0-.09,.13-.05,.65-.26,1.47-.64,2.41-.37,.95-.78,1.73-1.21,2.32-.04,.04-.06,.08-.06,.14,.02,.02,.02,.08,.32-.08,.4-.25,.83-.6,1.27-1.04,.43-.45,.83-.95,1.23-1.56l.09-.14,.11,.14c.09,.1,.21,.2,.35,.27,.17,.11,.35,.15,.54,.13h.13v.12c.02,.44,.02,1.13,.02,2.27v.11h-.11c-1.06,.15-2.19,.26-3.35,.31-.09,0-.13,.03-.16,.05-.04,.04-.05,.07-.05,.09,0,0,.01,.03,.05,.11,.1,.16,.2,.3,.3,.41,.09,.1,.19,.2,.3,.27s.18,.13,.22,.17c.16,.09,.33,.13,.52,.13,.1,0,.16,0,.19,0,.54-.11,1.16-.22,1.95-.34l.14-.03v.15c0,1.8-.04,2.99-.14,3.64-.06,.27-.08,.42-.08,.5s.02,.16,.04,.24c.14,.4,.32,.74,.55,1.02,.11,.14,.32,.36,.47,.29,.3-.12,.52-.38,.65-.76,.14-.4,.2-.99,.18-1.76l-.08-3.52h.12c.51-.06,.81-.08,1-.09,.49-.03,.86-.04,1.12-.04h.56c.09,.02,.2,.03,.34,.03,.23,0,.4-.04,.5-.12,.08-.05,.11-.1,.11-.18,0-.03-.01-.12-.11-.32Z"/>
                        <path class="cls-1"
                              d="M932.84,65.57c-.28-1-.43-2.11-.43-3.32s.15-2.32,.43-3.32c.29-1.01,.84-2.12,1.63-3.29,.16-.25,.17-.33,.17-.35,0-.07-.16-.11-.4-.11h-.47c-.33,0-.57,.11-.73,.34-1.43,2.09-2.16,4.36-2.16,6.73s.73,4.64,2.16,6.74c.16,.23,.4,.34,.73,.34h.47c.28,0,.4-.06,.4-.11,0-.02-.01-.11-.17-.36-.79-1.17-1.34-2.28-1.63-3.29Z"/>
                        <path class="cls-1"
                              d="M950.42,59.96c-.19-.14-.43-.22-.7-.22-.16,0-.36,.02-.58,.06-.23,.04-.38,.07-.44,.08-.74,.12-1.96,.28-3.74,.48l-.25,.03,.12-.21v-.03l.04-.63,.11-.02c.9-.09,1.44-.14,1.65-.14s.37-.02,.46-.06c.04-.01,.08-.04,.07-.14,0-.04-.02-.13-.18-.34-.12-.15-.26-.27-.4-.34-.18-.06-.34-.1-.46-.1-.04,0-.1,.01-.21,.03l-.97,.15,.04-.79h.11c1.12-.14,1.88-.2,2.32-.2,.11,0,.2-.02,.25-.06,.03-.03,.06-.07,.06-.16v-.08c-.11-.25-.26-.47-.45-.66-.03-.03-.09-.09-.28-.17-.15-.07-.31-.1-.49-.1-.14,0-.58,.06-1.28,.18l-.16,.03,.04-.72c0-.21-.02-.32-.03-.36-.02-.06-.07-.11-.16-.16-.17-.14-.44-.25-.81-.33-.39-.09-.73-.13-1.03-.11-.17,0-.21,.06-.22,.08-.03,.08-.05,.14-.03,.21,.07,.18,.13,.43,.16,.71s.05,.45,.06,.51v.52h-.1c-1.31,.23-2.18,.35-2.75,.4-.07,0-.13,.03-.16,.06-.04,.04-.05,.07-.05,.09,0,.01,.01,.03,.03,.05,.39,.53,.72,.8,.98,.8h.1c.25-.07,.83-.16,1.84-.29l.14-.02v.84l-.1,.02c-.86,.13-1.48,.23-1.86,.28-.13,.02-.25,.05-.25,.11,0,0,0,.01,.01,.02l.27,.34c.1,.1,.18,.18,.25,.22,.05,.04,.12,.06,.2,.06,.07,0,.09,0,.1,0h.04c.2,0,.58-.04,1.22-.13l.14-.02v.7l.08,.16-.18,.02c-2.71,.32-4.38,.47-5.08,.48-.28,0-.46,.07-.46,.15,0,.02,.02,.11,.16,.27,.03,.04,.11,.12,.21,.23,.11,.11,.21,.2,.32,.27,.1,.06,.25,.1,.42,.1,.11,0,.18-.01,.23-.02,1.22-.17,3.33-.39,6.27-.67,3.02-.28,4.85-.4,5.61-.36,.06,0,.13-.03,.19-.08,.06-.06,.09-.13,.09-.23,0-.22-.18-.48-.53-.78Zm-2.64,2.93c0-.07-.06-.23-.51-.49-.38-.22-.76-.4-1.15-.53-.12-.05-.23-.07-.33-.07-.09,0-.12,0-.14,.02-.3,.13-.89,.25-1.8,.37-.93,.12-1.62,.17-2.12,.16-.24-.06-.45-.1-.66-.13-.04,0-.07,0-.12,.06-.04,.05-.06,.12-.06,.19,0,.01,0,.04,.02,.1,.07,.17,.1,.53,.1,1.1,0,.72-.04,1.6-.12,2.68-.09,1.1-.17,1.74-.24,2.02-.02,.11,.03,.24,.15,.39,.13,.16,.3,.31,.51,.43,.26,.15,.42,.19,.51,.2,.2,0,.35-.07,.44-.21,.09-.15,.14-.43,.16-.83,0-.3,.01-.74,.04-1.34l.03-.62,.2,.19c.13,.13,.25,.18,.38,.18,.01,0,.04,0,.14-.02,.78-.07,1.25-.1,1.45-.1,.21,0,.31-.04,.36-.08,.06-.04,.08-.09,.08-.16,0-.05-.02-.1-.05-.16-.15-.28-.32-.45-.54-.51-.02-.01-.04-.01-.09-.01-.08,0-.37,.04-.64,.07-.4,.11-.77,.18-1.12,.21h-.14l.06-1.04,.16,.07c.12,.04,.22,.07,.32,.07h.06c.11-.04,.33-.07,.66-.1,.34-.03,.61-.05,.79-.06,.41,0,.41-.17,.41-.24,0-.05-.01-.1-.04-.16-.13-.24-.29-.41-.47-.51h-.04s-.13,0-.28,.03c-.2,.02-.34,.05-.45,.08l-1.07,.19,.02-.17c.03-.36,.05-.52,.07-.59,0-.04,.01-.09,.03-.16l.03-.11,.12,.02s.1,0,.2,0c.7-.12,1.46-.27,2.23-.42,.01-.01,.12-.04,.25,.07,.09,.09,.11,.17,.11,.23,0,.8,.02,2.15,.02,4.37,0,.09-.03,.18-.09,.25-.07,.08-.17,.13-.3,.14-.22,.01-.59,.01-1.2,.01h-.03s.03,.03,.05,.04c.25,.12,.51,.31,.8,.56s.5,.51,.63,.76c.2,.28,.31,.31,.34,.31,.17,0,.39-.06,.66-.18s.51-.34,.73-.64c.21-.29,.31-.71,.31-1.24,0-.48,0-1.04-.04-1.71-.01-.19-.02-.42-.02-.68v-.29c-.02-.39-.03-.82-.03-1.31,0-.06,.02-.15,.14-.4,.09-.13,.12-.23,.12-.31Z"/>
                        <path class="cls-1"
                              d="M965.48,62.81c-.15-.21-.36-.44-.62-.69-.27-.25-.54-.45-.8-.6-.11-.05-.2-.08-.26-.08-.04,0-.18,.02-.55,.17-.08,.03-.3,.08-1.32,.24l-.41,.06,.31-.28c.11-.1,.21-.21,.28-.32,.05-.07,.12-.22,.18-.53,.03-.13,.09-.57,.19-1.34,.06-.55,.11-.89,.14-1.04,.02-.07,.04-.15,.08-.27l.02-.06c.05-.13,.07-.24,.07-.33,0-.1-.04-.18-.11-.25-.15-.15-.33-.28-.52-.39-.17-.1-.39-.21-.71-.35-.19-.13-.32-.12-.51,.03-.05,.07-.13,.14-.23,.19-.09,.04-.25,.1-.48,.16l-2.11,.43,.47-.34c.34-.24,.67-.53,1-.86,.19-.18,.33-.34,.4-.48,.07-.13,.1-.25,.08-.38-.01-.15-.11-.29-.29-.44s-.41-.28-.68-.38c-.26-.1-.49-.15-.68-.15-.1,0-.12,.02-.12,.02,0,0-.02,.04-.02,.16v.25c-.08,.63-.5,1.45-1.26,2.45l-.06,.07-.09-.03c-.41-.15-.74-.22-1-.22-.08,0-.17,0-.17,.06s.01,.09,.02,.11c.01,.01,.02,.05,.07,.2,.05,.12,.08,.32,.11,.58,.04,.19,.05,.53,.05,1.05s-.02,1.11-.06,1.68-.11,.98-.2,1.24c-.04,.17-.09,.31-.14,.39-.04,.09-.11,.18-.21,.3-.04,.04-.06,.09-.06,.13s.02,.09,.05,.15c.03,.07,.06,.12,.08,.15,.03,.05,.07,.12,.2,.26,.1,.11,.18,.19,.25,.25,.14,.1,.28,.16,.39,.16,.03,0,.11-.01,.26-.07l.19-.06,.03,.13s.01,.03,.06,.1c.11,.15,.18,.36,.21,.61,.02,.33,.03,.81,.03,1.38v.11l-1.81,.24v-.15c0-.14,.01-.32,.04-.51,.03-.22,.05-.38,.09-.49,.05-.22,.05-.32,.05-.36,0-.09-.03-.17-.11-.25-.14-.14-.36-.27-.63-.38-.28-.11-.55-.16-.83-.16-.12,0-.15,.02-.15,.02,0,0-.01,0-.01,.06l.03,.3c.07,.37,.11,.77,.11,1.16,0,.27-.01,.5-.05,.7-.01,.05-.04,.12-.19,.34-.14,.2-.17,.29-.17,.32,0,.04,.02,.07,.04,.12,.14,.27,.33,.52,.6,.76,.14,.09,.33,.11,.45,.07,.71-.21,1.64-.41,2.76-.58s2.08-.26,2.85-.26h.05l.04,.04c.4,.38,.81,.47,1.13,.12,.14-.16,.23-.4,.28-.71,.08-.48,.13-.88,.14-1.17v-.35c.02-.08,.02-.14,.02-.16,.01-.08,.02-.16,.05-.25,.02-.07,.03-.12,.03-.15,0-.08-.03-.14-.09-.2-.1-.09-.32-.19-.66-.29-.36-.09-.69-.14-.97-.14-.17,0-.23,.02-.25,.03s-.01,.04,.02,.11c.09,.09,.14,.2,.16,.33,.03,.12,.04,.36,.04,.7s-.01,.56-.02,.73v.11h-.12c-.24,.01-.7,.05-1.37,.11l-.14,.02,.02-.49,.1-.58c.03-.17,.04-.3,.04-.4,0-.08,0-.12-.01-.13-.03-.25-.26-.42-.68-.53l-.59-.16,.61-.08c.75-.11,1.64-.22,2.81-.35,1.11-.12,1.74-.17,1.99-.17,.17,0,.3,.05,.38,.14s.11,.21,.1,.36c-.04,.79-.11,1.51-.21,2.14-.11,.63-.29,1.27-.55,1.89-.07,.14-.19,.24-.38,.32-.16,.08-.36,.11-.59,.11-.37,0-.62-.02-.79-.06-.03-.01-.09-.01-.17-.01h-.06s.07,.08,.18,.14c.5,.34,.85,.69,1.03,1.07,.04,.07,.1,.18,.18,.36,.06,.13,.13,.23,.2,.29,.04,.03,.13,.09,.39,.09,.4,0,.78-.15,1.16-.46,.4-.33,.71-.84,.9-1.5,.2-.66,.37-1.48,.52-2.49l.08-.47c0-.07,.03-.18,.05-.33,.02-.17,.05-.36,.09-.54,.05-.2,.12-.4,.23-.61,.01,0,.03-.06,.08-.14,.03-.06,.05-.13,.05-.21,0-.12-.04-.24-.12-.36Zm-4.69-3.13c-.05,.52-.1,.91-.14,1.08-.07,.2-.11,.25-.15,.28-.05,.04-.13,.06-.27,.07-.24,.02-.48,.03-.74,.03h-.02c.41,.21,.76,.44,1.06,.69l.22,.19-3.37,.39,.04-1.11c.01-.21,.01-.37,.01-.5l.06-1.69,.18,.12c.58,.36,1.06,.75,1.43,1.16,.22,.22,.33,.24,.36,.24s.08,0,.17-.09c.17-.17,.25-.38,.25-.64,0-.28-.1-.5-.31-.67-.21-.18-.54-.27-.98-.27-.23,0-.53,.04-.92,.11h-.18l.07-.5v-.15l.14,.03c.12,.01,.19,.03,.22,.03l.21-.02c.19-.05,.57-.12,1.09-.19,.56-.09,.94-.13,1.21-.14,.13-.03,.25,0,.33,.07,.07,.06,.11,.17,.11,.32,0,.19-.03,.55-.08,1.16Z"/>
                        <path class="cls-1"
                              d="M970.22,55.52c-.15-.23-.38-.34-.72-.34h-.47c-.25,0-.4,.04-.4,.11,0,.02,.01,.11,.16,.36,.79,1.16,1.34,2.26,1.63,3.29,.29,1,.44,2.12,.44,3.31s-.15,2.32-.44,3.32c-.29,1.02-.83,2.13-1.63,3.3-.15,.24-.16,.33-.16,.35,0,.06,.16,.11,.4,.11h.47c.33,0,.57-.11,.72-.34,1.44-2.1,2.17-4.36,2.17-6.74s-.73-4.64-2.17-6.73Z"/>
                        <path class="cls-1"
                              d="M910.41,76.99c-.12-.24-.24-.44-.35-.58-.1-.12-.24-.25-.41-.4-.1-.1-.24-.14-.42-.14-.11,0-.18,0-.23,0l-1,.16c-.29,.04-.62,.1-.99,.15-.66,.11-1.46,.23-2.4,.36l-.22,.04,.13-.3c.44-1.01,.6-1.36,.63-1.42l.03-.06s.03-.08,.06-.13c.02-.07,.04-.13,.04-.19,0-.07-.02-.17-.22-.28-.58-.38-1.16-.62-1.72-.72l-.19-.03c-.06,0-.06,.02-.06,.05,0,.01,0,.05,.04,.14,.06,.14,.09,.3,.09,.47,0,.28-.09,.75-.27,1.42-.19,.63-.31,1-.4,1.24l-.02,.07h-.07c-1.85,.29-3.11,.45-3.84,.5-.06,0-.27,.03-.27,.11,0,.03,0,.1,.07,.22,.15,.24,.31,.44,.49,.59,.21,.17,.37,.29,.51,.36,.05,.04,.09,.05,.14,.05,.03,0,.07-.01,.13-.03,.08-.02,.14-.04,.21-.05,.58-.15,1.2-.27,1.88-.38l.22-.03-.09,.21c-.59,1.32-1.29,2.52-2.08,3.55-.76,1.01-1.63,1.99-2.57,2.9,0,.01-.01,.02-.01,.02h.08c.89-.41,1.7-.89,2.41-1.41,.7-.52,1.35-1.13,1.91-1.82l.23-.27v.35c0,.7-.02,1.36-.05,1.98s-.07,1.21-.11,1.76l-.09,1.27c-.01,.24,.03,.47,.13,.71,.09,.24,.22,.44,.38,.6,.15,.15,.3,.24,.43,.27,.1,.04,.2,.01,.33-.08,.14-.11,.26-.29,.37-.53,.11-.25,.16-.53,.16-.83v-.42c-.05-.46-.07-.94-.07-1.44v-.17l.16,.05c.08,.03,.26,.03,.32,.03,.76-.06,1.35-.13,1.81-.2,.24-.02,.31-.04,.33-.05v-.13c-.05-.24-.13-.43-.22-.54-.07-.11-.12-.17-.17-.2-.07-.03-.14-.05-.22-.05-.04,0-.15,0-.33,.03-.39,.08-.9,.15-1.55,.2l-.14,.02v-.15c.02-.16,.02-.4,.02-.79v-.11l.35-.03,1.82-.23c.18-.02,.26-.05,.3-.06,.01,0,.01-.03,.01-.05,0-.05,0-.08-.01-.11-.04-.18-.08-.27-.1-.32-.04-.06-.09-.13-.15-.21-.06-.1-.12-.15-.18-.19-.05-.03-.14-.04-.24-.04h-.26c-.59,.13-1.06,.21-1.35,.26l-.15,.02v-.15c.02-.41,.05-.76,.09-1.06l.02-.15,.14,.05c.15,.06,.25,.04,.27,.03,.12-.04,.43-.1,.92-.17,1.05-.16,1.29-.11,1.37-.07,.09,.05,.14,.15,.14,.3v1.68c.03,.99,.04,1.66,.04,2.19,0,.66-.01,1.17-.01,1.55,0,.46-.31,.52-.49,.52h-1.03s-.05,0-.06,0c.01,.01,.03,.03,.06,.05,.69,.55,1.15,.99,1.42,1.38,.09,.13,.18,.24,.27,.32,.05,.04,.12,.09,.28,.05,.15-.04,.28-.1,.38-.19,.11-.08,.27-.24,.48-.48,.16-.19,.3-.45,.41-.75,.11-.31,.15-.56,.14-.76-.04-.51-.07-1.17-.09-1.91-.03-.87-.04-1.59-.04-2.21,0-.52,.01-.82,.01-.96,.01-.28,.07-.61,.17-.98,.06-.2,.07-.31,.07-.37,0-.07-.02-.14-.06-.19-.17-.18-.42-.37-.75-.56l-.63-.36c-.14-.06-.3-.07-.46,.05-.09,.11-.23,.2-.39,.26-.16,.05-.24,.08-.28,.1-.22,.08-.58,.16-1.12,.25-.52,.09-1.01,.16-1.45,.21l-.25,.03,.13-.21c.25-.43,.49-.93,.74-1.52l.03-.06h.07c1.03-.15,1.93-.24,2.74-.31,.89-.07,1.54-.11,1.97-.11,.37,0,.67,.01,.93,.05,.57,.04,.7,.08,.8-.06,.06-.08,.09-.16,.09-.25,0-.08-.03-.16-.07-.24Z"/>
                        <path class="cls-1"
                              d="M917.01,77.12c.32-.43,.59-.78,.82-1.02,.08-.1,.09-.16,.09-.19,0-.02-.01-.1-.12-.25-.09-.09-.25-.22-.46-.38-.25-.19-.41-.26-.49-.29-.14-.07-.28-.08-.4,0-.08,.04-.28,.15-.59,.34-.29,.13-.49,.2-.65,.23l-.15,.04v-.16s-.01-.07-.28-.16c-.23-.07-.49-.13-.81-.17-.29-.04-.53-.05-.7-.03-.03,0-.05,0-.05,.08,0,.04,.01,.05,.01,.05,.11,.49,.17,1.01,.17,1.59,.02,.57,.03,1.4,.03,2.45,0,1.3-.02,2.59-.06,3.84-.04,1.26-.1,2.08-.18,2.53-.03,.14-.04,.26-.04,.37,0,.08,.01,.17,.04,.27,.09,.32,.25,.62,.48,.87,.19,.21,.36,.3,.5,.26,.27-.1,.46-.32,.59-.67,.13-.36,.18-.89,.16-1.55l-.08-4.04h.01v-.82c0-1.26,.03-2.39,.09-3.36,0-.06,0-.11,0-.16,0-.06,.01-.13,.02-.19v-.08l.08-.03c.38-.16,.64-.26,.79-.31l.24-.08-.38,1.07-.38,1.12s-.03,.1-.05,.16v.05s-.04,.11-.04,.14c0,.04,.02,.07,.05,.1,.31,.27,.54,.56,.68,.84,.13,.26,.24,.67,.35,1.24,0,.22-.03,.35-.09,.44-.08,.1-.21,.14-.41,.11l-.47-.08c-.21-.03-.34-.05-.4-.06l.12,.12c.27,.27,.57,.6,.88,.97l.31,.36c.09,.11,.19,.16,.31,.16,.07,0,.12,0,.17-.03,.25-.1,.49-.3,.7-.6,.22-.29,.32-.64,.32-1.06,0-.32-.12-.66-.35-1.03-.25-.38-.68-.9-1.29-1.53l-.06-.08,.05-.08c.29-.43,.59-.87,.91-1.3Zm9.76,9.17c-.59-.19-1.19-.6-1.79-1.22-.6-.61-1.23-1.42-1.87-2.41l-.1-.15,.18-.04c.72-.16,1.46-.38,2.21-.65,.16-.08,.36-.22,.36-.38,0-.04-.02-.12-.11-.26-.03-.07-.12-.2-.37-.46-.21-.21-.46-.41-.73-.58-.01-.01-.02-.01-.03-.01-.1,.47-.61,1.13-1.56,2.02l-.11,.11-.45-.71c-.25-.43-.41-.71-.49-.84l-.1-.18,.1-.07s.06-.03,.09,0c.15-.02,.25-.03,.32-.03h.05l.03,.03s.07,.06,.09,.09l-.08,.11,.1-.07c.06,.09,.14,.13,.25,.13,.14,0,.3-.06,.48-.19,.18-.12,.34-.29,.49-.5,.14-.21,.21-.42,.23-.63,.03-.33,.09-.76,.19-1.35,.08-.51,.16-.96,.24-1.33,.04-.2,.1-.38,.18-.55,.07-.16,.11-.27,.13-.32,.02-.04,.03-.09,.03-.13,0-.14-.05-.26-.16-.37-.17-.22-.54-.49-1.12-.82-.08-.04-.16-.06-.22-.06-.04,0-.08,0-.11,.04-.19,.15-.56,.3-1.12,.46-.55,.16-1.05,.28-1.49,.36l-.13,.02-.02-.13c-.02-.13-.05-.22-.1-.28-.08-.1-.22-.19-.42-.25-.23-.07-.56-.15-.96-.24l-.33-.06h-.04s-.07,.01-.1,.02c-.02,.01-.02,.02-.02,.03,0,.05,.01,.06,.01,.07v.02c.3,.75,.44,2.51,.44,5.36,0,1.7-.04,3.45-.14,5.19,0,.24-.06,.43-.16,.59-.1,.17-.22,.29-.36,.36h-.02c-.1,.07-.17,.11-.2,.13-.13,.06-.15,.12-.15,.18,0,0,.01,.06,.07,.21,.06,.12,.17,.3,.35,.51,.17,.22,.35,.41,.53,.59,.08,.07,.16,.11,.22,.11,.07,0,.22-.05,.45-.35,.29-.39,.9-1.11,1.82-2.14l.75-.87s.04-.07,.04-.07c-.04,.02-.07,.03-.11,.05-.32,.19-.8,.41-1.47,.68-.08,.03-.16,.03-.21,0-.04-.02-.08-.07-.08-.17,0-1.1,.01-2.41,.04-3.98v-.1l.6-.13,.05,.08c.36,.69,.83,1.76,1.46,3.27,.52,1.28,.87,2.05,1.06,2.36,.16,.28,.32,.49,.48,.62,.23,.2,.55,.24,1.03,.09,.84-.24,1.51-.49,2.01-.72-.02-.03-.07-.05-.13-.07Zm-6.28-6.63h-.1l-.15,.04,.02-1.41h.14c.09,.02,.18,.02,.28,0l1.13-.12c.28-.03,.42-.1,.42-.22,0-.06-.01-.11-.04-.17-.07-.17-.12-.25-.14-.29-.03-.03-.09-.1-.21-.19-.04-.02-.09-.04-.14-.04s-.14,0-.28,.03l-1.13,.2,.02-1.21,.85-.14c.27-.05,.51-.09,.72-.12,.11-.02,.21-.04,.3-.05,.08-.01,.15-.02,.22-.04,.09-.02,.18,0,.25,.04,.07,.06,.11,.16,.11,.31,0,.43-.02,.88-.06,1.34-.03,.49-.07,.89-.11,1.19-.03,.17-.07,.29-.13,.37-.06,.07-.16,.13-.29,.17l-.2,.06c-.62,.07-1.11,.14-1.48,.24Z"/>
                        <path class="cls-1"
                              d="M933.66,75.94c-.25-.39-.76-.77-1.51-1.15-.21-.08-.27-.08-.27-.08-.03,0-.05,0-.06,.02-.02,.02-.03,.04-.02,.09,.02,.31-.03,.7-.16,1.19-.41,1.39-.88,2.59-1.4,3.56-.52,.96-1.27,1.9-2.24,2.78-.01,0-.01,.01-.02,.01h.03c.83-.17,1.56-.47,2.14-.89s1.06-.87,1.41-1.35c.34-.48,.7-1.05,1.1-1.75l.5-.93c.03-.08,.08-.18,.13-.28l.06-.09s.05-.1,.08-.14c.17-.35,.26-.64,.26-.86,0-.09-.02-.12-.03-.13Zm5.78,9.45c-.13-.36-.39-.73-.76-1.1-.39-.38-.82-.69-1.26-.93s-.81-.36-1.11-.36c-.07,0-.13,.02-.18,.05-.05,.04-.05,.07-.05,.09,0,.03,.01,.07,.03,.12,.22,.26,.45,.68,.71,1.27l.06,.15-4.69,.72,.25-.27c.53-.54,1.09-1.17,1.72-1.92,.75-.89,1.04-1.3,1.16-1.49,.02-.06,.08-.15,.16-.28s.14-.25,.21-.37c.05-.1,.07-.21,.07-.3,0-.03,0-.07-.02-.12-.1-.2-.3-.43-.6-.66-.31-.23-.7-.43-1.15-.6l-.16-.03c-.07,0-.13,.02-.18,.06-.04,.04-.07,.09-.09,.16,.01,0,0,.03,0,.08v.1c-.01,.1-.03,.23-.07,.45-.04,.19-.12,.45-.23,.76-.36,.86-.81,1.66-1.32,2.37-.53,.74-1,1.28-1.43,1.67-.05,.05-.13,.12-.23,.2-.09,.08-.19,.16-.27,.25-.06,.06-.08,.12-.08,.18-.03,.24,.06,.55,.27,.94s.45,.69,.71,.9c.03,.02,.08,.03,.14,.03,.07,0,.21-.02,.48-.16,.29-.18,1.07-.42,2.37-.75,1.27-.33,2.38-.58,3.3-.74l.1-.02,.35,1.06c.04,.16,.1,.3,.19,.39h.01c.07,.09,.15,.13,.26,.12,.42-.07,.77-.25,1.04-.52,.26-.27,.39-.59,.39-.95,0-.2-.03-.38-.1-.55Zm2.62-4.79c-.52-.24-1.21-.7-2.11-1.41-.6-.46-1.17-1.02-1.7-1.65-.54-.63-1.12-1.47-1.73-2.5-.12-.22-.3-.39-.55-.51-.26-.13-.53-.19-.83-.19-.16,0-.3,.02-.4,.06-.1,.05-.15,.1-.17,.13-.01,.03-.01,.04-.01,.04,.11,.14,.29,.44,.63,1.05,.22,.38,.53,.96,1.05,1.99,.39,.81,.72,1.44,1,1.92,.29,.5,.57,.89,.86,1.18,.47,.44,.92,.67,1.35,.67,.18,0,.26-.02,.29-.03,.2-.02,.53-.1,1-.22l.37-.1c.25-.06,.41-.1,.47-.12l.07-.02c.07-.02,.13-.04,.19-.06,.07,0,.13-.03,.17-.04,.15-.05,.19-.09,.19-.1,0,0-.02-.04-.14-.09Z"/>
                        <path class="cls-1"
                              d="M950.89,78.23c-.06-.12-.15-.24-.26-.37-.13-.15-.23-.26-.32-.34-.13-.1-.36-.15-.67-.15-.13,0-.21,0-.27,0-.72,.09-1.66,.25-2.81,.45l-.1,.02c-.36,.06-.7,.12-1.03,.18-.32,.05-.63,.09-.87,.1-.14,0-.25,.02-.32,.07-.04,.03-.09,.07-.09,.12,0,0,0,.04,.03,.1,.48,.59,.87,.9,1.16,.9,.02,0,.06-.01,.13-.03,.4-.14,1.18-.3,2.4-.47,1.21-.16,2.11-.24,2.77-.24,.28,0,.28-.13,.28-.2,0-.05-.01-.1-.03-.15Zm-.27,2.31c-.12-.11-.29-.25-.53-.42-.23-.16-.42-.26-.55-.31s-.22-.07-.27-.07c-.08,0-.19,.03-.32,.09-.15,.1-.51,.2-1.07,.31-.63,.12-1.22,.21-1.79,.28h-.05l-.04-.02c-.16-.12-.35-.22-.57-.29-.23-.08-.45-.12-.67-.12-.1,0-.27,.01-.27,.09,0,.03,.01,.09,.04,.18,.04,.07,.07,.18,.09,.33,.03,.18,.04,.31,.04,.4,.03,.25,.04,.65,.04,1.19,0,.76-.03,1.32-.09,1.64-.03,.12-.04,.22-.04,.3,0,.13,.06,.29,.18,.47,.12,.16,.29,.31,.49,.44,.36,.25,.64,.29,.86,.02,.1-.14,.16-.29,.16-.46v-.28l2.02-.22,.18,.24c.07,.14,.13,.23,.19,.28,.05,.04,.11,.06,.2,.06,.26,0,.55-.09,.83-.27s.43-.37,.45-.58c.02-.1,.04-.19,.05-.28,.02-.1,.04-.18,.06-.27s.04-.27,.06-.54c.06-.45,.11-.82,.16-1.07,.04-.24,.1-.44,.18-.6,.05-.11,.08-.21,.08-.29s-.03-.16-.1-.23Zm-1.96,2.47l-.02,.09-2.48,.23v-1.98l.09-.02c.72-.11,1.45-.19,2.23-.25,.11,0,.21,.04,.26,.16,.03,.09,.04,.17,.04,.25,0,.62-.05,1.12-.12,1.52Zm6.45-7.8c-.13-.18-.34-.37-.63-.57-.32-.2-.62-.36-.92-.48-.17-.09-.35-.09-.55-.02-.12,.03-.2,.06-.27,.08-.24,.09-1.38,.27-3.47,.55-2.09,.29-3.34,.43-3.83,.43-.19,0-.29,.04-.29,.12,0,.04,.01,.09,.04,.16,.12,.25,.3,.5,.52,.74,.21,.21,.43,.32,.64,.32,.08,0,.11-.01,.11-.01,.75-.16,1.75-.34,2.99-.53s2.18-.29,2.8-.31c.12,0,.2,.02,.25,.06,.08,.07,.09,.17,.09,.26v.68c0,1.57-.06,3.29-.19,5.12-.14,1.85-.32,3.1-.56,3.82-.04,.16-.19,.37-.67,.37h-.32c-.12-.01-.4-.02-.85-.02-.14,0-.19,.02-.21,.03,.01,0,.03,.05,.13,.12,.75,.59,1.26,1.16,1.52,1.7,.13,.29,.3,.43,.54,.43,.1,0,.22-.02,.37-.07,.38-.15,.75-.42,1.08-.81,.35-.38,.59-.82,.73-1.29,.14-.46,.24-1.2,.31-2.26,.08-1.13,.14-2.51,.18-4.11l.02-.47c.03-1.4,.08-2.41,.15-2.93,.02-.17,.06-.31,.14-.43l.1-.2c.07-.12,.11-.22,.11-.29s-.02-.14-.06-.19Z"/>
                    </g>
                    <g>
                        <path class="cls-6"
                              d="M153.09,0C68.54,0,0,68.54,0,153.09s68.54,153.09,153.09,153.09,153.09-68.54,153.09-153.09S237.64,0,153.09,0Z"/>
                        <path class="cls-2"
                              d="M267.89,66.85s25.09,37.39,13.97,69.15c-7.46,21.31-34.54,28.81-56.21,21.91-33.64-10.71-75.38-46.48-120.98-13.59-38.55,27.82-22.48,76.34,5.05,92.5,20.62,12.11,49.38,15.91,66.19,1.6,13.47-11.48,20.81-41.4-1.89-51.66-7.74-3.5-22.97-4.27-31.35,5.5-10.95,12.77-6.78,30.62,8.37,36.28,0,0-27.1-1.35-30.7-29.38-6.13-47.7,54.92-55.56,83.86-37.68,52.07,32.16,33.6,105.04-43.86,118.3-39.24,6.72-104.07-6.79-129.77-59.28-9.62-19.68-7.01-16.31-7.01-16.31,0,0,3.41,3.8,9.1,7.93,18.42,13.4,35.59,1.25,31.41-16.37-14.34-60.63,9.77-70.89,24.52-82.25,14.78-11.33,8.95-32.57-20.09-27.9-40.68,6.54-51.43,65.62-51.43,65.62,0,0-6.71-100.38,81.23-109.17,89.69-8.96,102.52,69.91,141.73,81.86,54.49,16.61,27.83-57.06,27.83-57.06Z"/>
                    </g>
                    <g>
                        <g>
                            <rect class="cls-5" x="382.57" y="54.07" width="70.28" height="15.14"/>
                            <rect class="cls-5" x="643.64" y="54.07" width="62.83" height="15.14"/>
                            <polygon class="cls-5"
                                     points="382.57 102.08 437.91 102.08 437.91 113.73 383.15 113.73 383.15 246.29 398.28 246.29 398.28 128.87 410.72 128.87 410.72 246.29 425.86 246.29 425.86 159.46 437.91 159.46 437.91 246.29 453.04 246.29 453.04 144.32 425.86 144.32 425.86 128.87 453.04 128.87 453.04 86.95 382.57 86.95 382.57 102.08"/>
                            <path class="cls-5"
                                  d="M546.68,102.08h68.32V50.22h-68.32v51.87Zm15.14-36.74h38.05v21.6h-38.05v-21.6Z"/>
                            <path class="cls-5"
                                  d="M531.86,50.22h-68.32v51.87h68.32V50.22Zm-15.14,36.73h-38.04v-21.6h38.04v21.6Z"/>
                            <path class="cls-5"
                                  d="M463.54,198.89h67.49v11.84h-67.39v15.14h67.39v20.42h15.13v-20.42h68.67v-15.14h-68.67v-11.84h68.83V110.92h-151.45v87.97Zm15.14-15.14v-21.29h52.35v21.29h-52.35Zm67.49,0v-21.29h53.7v21.29h-53.7Zm53.7-36.42h-53.7v-21.28h53.7v21.28Zm-68.83-21.28v21.28h-52.35v-21.28h52.35Z"/>
                        </g>
                        <g>
                            <path class="cls-4"
                                  d="M795.84,229.08c-17.51,3.33-57.47,25.36-57.47,25.36-46.7,18.29-70.84-16.35-70.84-16.35l-9.17,7.48c35.47,43.81,91.98,16.13,91.98,16.13,114.34-66.99,174.77-15.42,188.8-1.33-63.19-63.49-143.3-31.29-143.3-31.29Z"/>
                            <path class="cls-4"
                                  d="M721.53,241.47c6.79,2.39,25.69-5.95,25.69-5.95,92.49-58.7,171.57-.7,186.84,14.49-94.84-94.32-196.89-21.39-196.89-21.39-6.33,13.62-15.64,12.86-15.64,12.86h0Z"/>
                            <path class="cls-4"
                                  d="M614.23,231.73c7.34,17.95,28.77,16.92,28.77,16.92,22.52-.02,18.09-23.2,18.09-23.2-5.08-12.41-16.84-8.59-16.84-8.59h0c-5.48,1.29-4.64,6.33-4.64,6.33,2.36,6.33,8.57,3.83,8.57,3.83l1.89-.57c3.85,9.72-5.32,12.41-5.32,12.41-21.79,.71-22.82-17-22.82-17-1.82-25.34,22.57-20.82,22.57-20.82,4.28-34.21,26.95-32.56,26.95-32.56,32.45-3.48,28.49,28.39,28.49,28.39,34.54,2.96,25.5,24.47,25.5,24.47-5.54,17.84-21.63,4.42-21.63,4.42-2.94-2.66,4.19-5.05,4.19-5.05,8.71-2.04,4.69-7.14,4.69-7.14-4.41-6.04-14.34,.87-14.34,.87-17.33,11.46,5.23,23.69,5.23,23.69,24.91,11.13,32.17-12.36,32.17-12.36,7.35-31.9-25.96-36.26-25.96-36.26-2.11-32.57-37.37-30.69-37.37-30.69-11,.31-18.89,3.66-24.39,8.26-10.19,8.5-13.46,24.33-13.46,24.33-30.72,8.89-20.34,40.31-20.34,40.31Z"/>
                        </g>
                        <g>
                            <path class="cls-5" d="M715.39,217.02h.32c-.1-.05-.2-.11-.32-.17v.17Z"/>
                            <path class="cls-5"
                                  d="M715.39,101.23v94.72c4.93,1.62,16.19,15.77,20.15,21.07h31.5c21.5-4.07,40.32-17.72,65.72-12.32l-8.05-2.81h-94.19V116.36h130.62v52.29h-97.39v-18.83h78.23v-15.13h-93.36v49.1h127.66V101.23h-73.05v-17.5h72.68v-15.14h-20.77v-17.88h-15.14v17.88h-88.66v-17.9h-15.13v17.9h-20.77v15.14h72.67v17.5h-72.71Z"/>
                        </g>
                        <path class="cls-5"
                              d="M690.92,131.88h-46.57v54.51c3.82-3.04,8.75-16.73,15.02-18.22l.11-21.15h46.56v-60.06h-61.79v15.14h46.66v29.79Z"/>
                    </g>
                </g>
            </g>
        </g>
    </g>
</svg>